<?xml version="1.0" encoding="UTF-8"?>
<!--Generator: Apple Native CoreSVG 175-->
<!DOCTYPE svg
PUBLIC "-//W3C//DTD SVG 1.1//EN"
       "http://www.w3.org/Graphics/SVG/1.1/DTD/svg11.dtd">
<svg version="1.1" xmlns="http://www.w3.org/2000/svg" xmlns:xlink="http://www.w3.org/1999/xlink" width="23.9062" height="23.918">
 <g>
  <rect height="23.918" opacity="0" width="23.9062" x="0" y="0"/>
  <path d="M11.9531 23.9062Q14.4023 23.9062 16.5645 22.9688Q18.7266 22.0312 20.3789 20.3789Q22.0312 18.7266 22.9688 16.5645Q23.9062 14.4023 23.9062 11.9531Q23.9062 9.50391 22.9688 7.3418Q22.0312 5.17969 20.3789 3.52734Q18.7266 1.875 16.5586 0.9375Q14.3906 0 11.9414 0Q9.49219 0 7.33008 0.9375Q5.16797 1.875 3.52148 3.52734Q1.875 5.17969 0.9375 7.3418Q0 9.50391 0 11.9531Q0 14.4023 0.9375 16.5645Q1.875 18.7266 3.52734 20.3789Q5.17969 22.0312 7.3418 22.9688Q9.50391 23.9062 11.9531 23.9062ZM11.9531 21.9141Q9.87891 21.9141 8.07422 21.1406Q6.26953 20.3672 4.9043 19.002Q3.53906 17.6367 2.77148 15.832Q2.00391 14.0273 2.00391 11.9531Q2.00391 9.87891 2.77148 8.07422Q3.53906 6.26953 4.89844 4.89844Q6.25781 3.52734 8.0625 2.75977Q9.86719 1.99219 11.9414 1.99219Q14.0156 1.99219 15.8203 2.75977Q17.625 3.52734 18.9961 4.89844Q20.3672 6.26953 21.1406 8.07422Q21.9141 9.87891 21.9141 11.9531Q21.9141 14.0273 21.1465 15.832Q20.3789 17.6367 19.0137 19.002Q17.6484 20.3672 15.8379 21.1406Q14.0273 21.9141 11.9531 21.9141ZM10.6758 15.4805Q12.0234 15.4805 13.125 14.8184Q14.2266 14.1562 14.8887 13.0547Q15.5508 11.9531 15.5508 10.6055Q15.5508 9.25781 14.8887 8.15039Q14.2266 7.04297 13.125 6.38672Q12.0234 5.73047 10.6758 5.73047Q9.33984 5.73047 8.23242 6.39258Q7.125 7.05469 6.46289 8.16211Q5.80078 9.26953 5.80078 10.6055Q5.80078 11.9414 6.46289 13.0488Q7.125 14.1562 8.23242 14.8184Q9.33984 15.4805 10.6758 15.4805ZM10.6758 13.8867Q9.78516 13.8867 9.03516 13.4355Q8.28516 12.9844 7.83984 12.2402Q7.39453 11.4961 7.39453 10.6055Q7.39453 9.70312 7.83984 8.95898Q8.28516 8.21484 9.03516 7.76953Q9.78516 7.32422 10.6758 7.32422Q11.5781 7.32422 12.3223 7.76953Q13.0664 8.21484 13.5059 8.95898Q13.9453 9.70312 13.9453 10.6055Q13.9453 11.4961 13.5059 12.2402Q13.0664 12.9844 12.3223 13.4355Q11.5781 13.8867 10.6758 13.8867ZM17.0977 18.0703Q17.5195 18.0703 17.7891 17.7949Q18.0586 17.5195 18.0586 17.0742Q18.0586 16.875 17.9648 16.6875Q17.8711 16.5 17.7305 16.3594L14.0273 12.6328L12.5391 13.9922L16.2656 17.7188Q16.6055 18.0703 17.0977 18.0703Z" fill="#98989d"/>
 </g>
</svg>
