<?xml version="1.0" encoding="UTF-8"?>
<!--Generator: Apple Native CoreSVG 175-->
<!DOCTYPE svg
PUBLIC "-//W3C//DTD SVG 1.1//EN"
       "http://www.w3.org/Graphics/SVG/1.1/DTD/svg11.dtd">
<svg version="1.1" xmlns="http://www.w3.org/2000/svg" xmlns:xlink="http://www.w3.org/1999/xlink" width="48.7925" height="49.7681">
 <g>
  <rect height="49.7681" opacity="0" width="48.7925" x="0" y="0"/>
  <path d="M9.35596 46.2305Q10.0371 46.7578 10.894 46.593Q11.751 46.4282 12.7617 45.7031L24.3853 37.1558L36.0308 45.7031Q37.0415 46.4282 37.8984 46.593Q38.7554 46.7578 39.4365 46.2305Q40.1177 45.7251 40.2605 44.8682Q40.4033 44.0112 39.9858 42.8247L35.3936 29.1577L47.127 20.7202Q48.1597 19.9951 48.5552 19.2261Q48.9507 18.457 48.687 17.644Q48.4233 16.853 47.6543 16.4575Q46.8853 16.062 45.6108 16.084L31.2188 16.1719L26.8462 2.43896Q26.4507 1.23047 25.8464 0.615234Q25.2422 0 24.3853 0Q23.5503 0 22.946 0.615234Q22.3418 1.23047 21.9463 2.43896L17.5737 16.1719L3.18164 16.084Q1.90723 16.062 1.13818 16.4575Q0.369141 16.853 0.105469 17.644Q-0.158203 18.457 0.237305 19.2261Q0.632812 19.9951 1.66553 20.7202L13.3989 29.1577L8.80664 42.8247Q8.38916 44.0112 8.53198 44.8682Q8.6748 45.7251 9.35596 46.2305ZM12.52 41.8799Q12.4761 41.8359 12.52 41.6821L16.8926 29.1138Q17.0464 28.6963 17.0354 28.3228Q17.0244 27.9492 16.8267 27.6306Q16.6289 27.312 16.2554 27.0483L5.31299 19.4897Q5.15918 19.4019 5.20312 19.314Q5.2251 19.248 5.40088 19.248L18.6943 19.4897Q19.3755 19.5117 19.8149 19.2151Q20.2544 18.9185 20.4521 18.2373L24.2754 5.51514Q24.3193 5.33936 24.3853 5.33936Q24.4731 5.33936 24.5171 5.51514L28.3403 18.2373Q28.5381 18.9185 28.9775 19.2151Q29.417 19.5117 30.0981 19.4897L43.3916 19.248Q43.5674 19.248 43.5894 19.314Q43.6333 19.4019 43.4795 19.4897L32.5371 27.0483Q32.1636 27.312 31.9658 27.6306Q31.7681 27.9492 31.7571 28.3228Q31.7461 28.6963 31.8999 29.1138L36.2725 41.6821Q36.2944 41.8359 36.2725 41.8799Q36.2285 41.9458 36.0747 41.8359L25.5059 33.772Q24.9785 33.3545 24.3962 33.3545Q23.814 33.3545 23.2866 33.772L12.7178 41.8359Q12.564 41.9458 12.52 41.8799Z" fill="#e05b2f"/>
 </g>
</svg>
