<?xml version="1.0" encoding="UTF-8"?>
<!--Generator: Apple Native CoreSVG 175-->
<!DOCTYPE svg
PUBLIC "-//W3C//DTD SVG 1.1//EN"
       "http://www.w3.org/Graphics/SVG/1.1/DTD/svg11.dtd">
<svg version="1.1" xmlns="http://www.w3.org/2000/svg" xmlns:xlink="http://www.w3.org/1999/xlink" width="23.9062" height="23.918">
 <g>
  <rect height="23.918" opacity="0" width="23.9062" x="0" y="0"/>
  <path d="M11.9531 23.9062Q14.4023 23.9062 16.5645 22.9688Q18.7266 22.0312 20.3789 20.3789Q22.0312 18.7266 22.9688 16.5645Q23.9062 14.4023 23.9062 11.9531Q23.9062 9.50391 22.9688 7.3418Q22.0312 5.17969 20.3789 3.52734Q18.7266 1.875 16.5586 0.9375Q14.3906 0 11.9414 0Q9.49219 0 7.33008 0.9375Q5.16797 1.875 3.52148 3.52734Q1.875 5.17969 0.9375 7.3418Q0 9.50391 0 11.9531Q0 14.4023 0.9375 16.5645Q1.875 18.7266 3.52734 20.3789Q5.17969 22.0312 7.3418 22.9688Q9.50391 23.9062 11.9531 23.9062ZM10.6523 15.5977Q9.26953 15.5977 8.12695 14.9121Q6.98438 14.2266 6.30469 13.0898Q5.625 11.9531 5.625 10.5703Q5.625 9.1875 6.30469 8.03906Q6.98438 6.89062 8.12695 6.21094Q9.26953 5.53125 10.6523 5.53125Q12.0352 5.53125 13.1777 6.21094Q14.3203 6.89062 15 8.0332Q15.6797 9.17578 15.6797 10.5703Q15.6797 11.3438 15.4512 12.0586Q15.2227 12.7734 14.8125 13.3594L17.918 16.4883Q18.0703 16.6406 18.1641 16.834Q18.2578 17.0273 18.2578 17.2266Q18.2578 17.6836 17.9824 17.9766Q17.707 18.2695 17.2617 18.2695Q16.7695 18.2695 16.4062 17.8945L13.3125 14.8125Q12.7383 15.1758 12.0645 15.3867Q11.3906 15.5977 10.6523 15.5977ZM10.6523 13.9453Q11.5781 13.9453 12.3398 13.4824Q13.1016 13.0195 13.5586 12.252Q14.0156 11.4844 14.0156 10.5703Q14.0156 9.63281 13.5586 8.86523Q13.1016 8.09766 12.3398 7.64062Q11.5781 7.18359 10.6523 7.18359Q9.72656 7.18359 8.95898 7.64648Q8.19141 8.10938 7.73438 8.87695Q7.27734 9.64453 7.27734 10.5703Q7.27734 11.4844 7.73438 12.252Q8.19141 13.0195 8.95898 13.4824Q9.72656 13.9453 10.6523 13.9453Z" fill="#98989d"/>
 </g>
</svg>
