<?xml version="1.0" encoding="UTF-8"?>
<!--Generator: Apple Native CoreSVG 175-->
<!DOCTYPE svg
PUBLIC "-//W3C//DTD SVG 1.1//EN"
       "http://www.w3.org/Graphics/SVG/1.1/DTD/svg11.dtd">
<svg version="1.1" xmlns="http://www.w3.org/2000/svg" xmlns:xlink="http://www.w3.org/1999/xlink" width="51.8115" height="40.4517">
 <g>
  <rect height="40.4517" opacity="0" width="51.8115" x="0" y="0"/>
  <path d="M10.9863 12.5244L13.645 12.5244Q14.3262 12.5244 14.8315 12.03Q15.3369 11.5356 15.3369 10.8325Q15.3369 10.1294 14.8315 9.63501Q14.3262 9.14062 13.645 9.14062L10.9863 9.14062Q10.2832 9.14062 9.7998 9.63501Q9.31641 10.1294 9.31641 10.8325Q9.31641 11.5137 9.81079 12.019Q10.3052 12.5244 10.9863 12.5244ZM10.9863 19.8413L13.645 19.8413Q14.3262 19.8413 14.8315 19.3579Q15.3369 18.8745 15.3369 18.1714Q15.3369 17.4683 14.8425 16.9849Q14.3481 16.5015 13.645 16.5015L10.9863 16.5015Q10.2832 16.5015 9.7998 16.9849Q9.31641 17.4683 9.31641 18.1714Q9.31641 18.8745 9.7998 19.3579Q10.2832 19.8413 10.9863 19.8413ZM19.7974 12.2168L41.1108 12.2168Q41.6821 12.2168 42.0776 11.8213Q42.4731 11.4258 42.4731 10.8325Q42.4731 10.2612 42.0776 9.86572Q41.6821 9.47021 41.1108 9.47021L19.7974 9.47021Q19.2261 9.47021 18.8306 9.86572Q18.4351 10.2612 18.4351 10.8325Q18.4351 11.4258 18.8306 11.8213Q19.2261 12.2168 19.7974 12.2168ZM19.7974 19.5557L41.1108 19.5557Q41.6821 19.5557 42.0776 19.1602Q42.4731 18.7646 42.4731 18.1714Q42.4731 17.6001 42.0776 17.1936Q41.6821 16.7871 41.1108 16.7871L19.7974 16.7871Q19.248 16.7871 18.8416 17.1826Q18.4351 17.5781 18.4351 18.1714Q18.4351 18.7427 18.8306 19.1492Q19.2261 19.5557 19.7974 19.5557ZM6.89941 40.4517L44.9121 40.4517Q48.3838 40.4517 50.0977 38.7488Q51.8115 37.0459 51.8115 33.6621L51.8115 6.81152Q51.8115 3.42773 50.0977 1.71387Q48.3838 0 44.9121 0L6.89941 0Q3.44971 0 1.72485 1.70288Q0 3.40576 0 6.81152L0 33.6621Q0 37.0459 1.72485 38.7488Q3.44971 40.4517 6.89941 40.4517ZM6.94336 36.9141Q5.29541 36.9141 4.4165 36.0461Q3.5376 35.1782 3.5376 33.4644L3.5376 7.00928Q3.5376 5.29541 4.4165 4.4165Q5.29541 3.5376 6.94336 3.5376L44.8682 3.5376Q46.4941 3.5376 47.384 4.4165Q48.2739 5.29541 48.2739 7.00928L48.2739 33.4644Q48.2739 35.1782 47.384 36.0461Q46.4941 36.9141 44.8682 36.9141Z" fill="#e05b2f"/>
 </g>
</svg>
