<?xml version="1.0" encoding="UTF-8"?>
<!--Generator: Apple Native CoreSVG 175-->
<!DOCTYPE svg
PUBLIC "-//W3C//DTD SVG 1.1//EN"
       "http://www.w3.org/Graphics/SVG/1.1/DTD/svg11.dtd">
<svg version="1.1" xmlns="http://www.w3.org/2000/svg" xmlns:xlink="http://www.w3.org/1999/xlink" width="20.6152" height="22.6074">
 <g>
  <rect height="22.6074" opacity="0" width="20.6152" x="0" y="0"/>
  <path d="M0 14.9023Q0 16.1328 0.366211 17.2217Q0.732422 18.3105 1.38672 19.1455Q2.04102 19.9805 2.89551 20.4541Q3.75 20.9277 4.7168 20.9277L7.94922 20.9277Q8.90625 21.4355 10.0684 21.7236Q11.2305 22.0117 12.5391 22.0117L13.8867 22.0117Q14.8047 22.0117 15.5713 21.9531Q16.3379 21.8945 16.8555 21.7676Q17.8711 21.5137 18.4619 20.8545Q19.0527 20.1953 19.0527 19.2969Q19.0527 18.9453 18.9355 18.5938Q19.4434 18.2227 19.7168 17.6904Q19.9902 17.1582 19.9902 16.543Q19.9902 15.918 19.7656 15.4297Q20.1074 15.0879 20.2979 14.6045Q20.4883 14.1211 20.4883 13.584Q20.4883 13.2422 20.4053 12.8955Q20.3223 12.5488 20.166 12.2852Q20.6152 11.6602 20.6152 10.752Q20.6152 10.0293 20.2686 9.43359Q19.9219 8.83789 19.3359 8.49121Q18.75 8.14453 18.0273 8.14453L14.3262 8.14453Q14.1504 8.14453 14.043 8.06641Q13.9355 7.98828 13.9355 7.8418Q13.9355 7.44141 14.1895 6.81152Q14.4434 6.18164 14.7705 5.4248Q15.0977 4.66797 15.3516 3.86719Q15.6055 3.06641 15.6055 2.32422Q15.6055 1.65039 15.3125 1.12305Q15.0195 0.595703 14.5166 0.297852Q14.0137 0 13.3594 0Q12.6367 0 12.1191 0.400391Q11.6016 0.800781 11.1328 1.70898Q10.6836 2.55859 10.1807 3.38867Q9.67773 4.21875 9.0918 5.06836Q8.50586 5.91797 7.79297 6.85059Q7.08008 7.7832 6.21094 8.84766L4.3457 8.84766Q3.44727 8.84766 2.65625 9.31641Q1.86523 9.78516 1.26953 10.6201Q0.673828 11.4551 0.336914 12.5537Q0 13.6523 0 14.9023ZM5.67383 14.8535Q5.67383 13.7988 5.84961 12.9492Q6.02539 12.0996 6.4209 11.3037Q6.81641 10.5078 7.48047 9.61914Q8.21289 8.64258 9.08691 7.51953Q9.96094 6.39648 10.8398 5.11719Q11.7188 3.83789 12.4512 2.38281Q12.7246 1.82617 12.9395 1.65039Q13.1543 1.47461 13.418 1.47461Q13.7402 1.47461 13.9355 1.69434Q14.1309 1.91406 14.1309 2.32422Q14.1309 2.91992 13.877 3.63281Q13.623 4.3457 13.2959 5.09766Q12.9688 5.84961 12.7148 6.55762Q12.4609 7.26562 12.4609 7.8418Q12.4609 8.67188 13.0664 9.14551Q13.6719 9.61914 14.541 9.61914L18.0273 9.61914Q18.5059 9.61914 18.8232 9.94629Q19.1406 10.2734 19.1406 10.752Q19.1406 11.377 18.6035 11.8945Q18.4766 12.0215 18.4619 12.1631Q18.4473 12.3047 18.5547 12.4414Q18.7988 12.793 18.9062 13.0469Q19.0137 13.3008 19.0137 13.584Q19.0137 13.9355 18.8477 14.2334Q18.6816 14.5312 18.3496 14.7852Q18.1641 14.9219 18.1055 15.1074Q18.0469 15.293 18.1543 15.5176Q18.3398 15.8594 18.4277 16.0693Q18.5156 16.2793 18.5156 16.543Q18.5156 17.2949 17.4805 17.832Q17.3145 17.9199 17.2705 18.0566Q17.2266 18.1934 17.2949 18.3594Q17.4805 18.7988 17.5293 18.9551Q17.5781 19.1113 17.5781 19.2969Q17.5781 19.6582 17.3096 19.9268Q17.041 20.1953 16.5039 20.332Q16.0742 20.4395 15.4053 20.4932Q14.7363 20.5469 13.8965 20.5371L12.5488 20.5176Q10.498 20.498 8.9502 19.7754Q7.40234 19.0527 6.53809 17.7832Q5.67383 16.5137 5.67383 14.8535ZM1.47461 14.9023Q1.47461 13.6426 1.87988 12.6025Q2.28516 11.5625 2.93945 10.9424Q3.59375 10.3223 4.3457 10.3223Q4.57031 10.3223 4.79492 10.3223Q5.01953 10.3223 5.25391 10.3223Q4.69727 11.3477 4.44824 12.4463Q4.19922 13.5449 4.19922 14.8242Q4.19922 16.2012 4.67773 17.373Q5.15625 18.5449 6.04492 19.4531Q5.71289 19.4531 5.38086 19.4531Q5.04883 19.4531 4.7168 19.4531Q3.85742 19.4531 3.11523 18.8281Q2.37305 18.2031 1.92383 17.1729Q1.47461 16.1426 1.47461 14.9023Z" fill="#98989d"/>
 </g>
</svg>
