<?xml version="1.0" encoding="UTF-8"?>
<!--Generator: Apple Native CoreSVG 175-->
<!DOCTYPE svg
PUBLIC "-//W3C//DTD SVG 1.1//EN"
       "http://www.w3.org/Graphics/SVG/1.1/DTD/svg11.dtd">
<svg version="1.1" xmlns="http://www.w3.org/2000/svg" xmlns:xlink="http://www.w3.org/1999/xlink" width="20.4727" height="22.0898">
 <g>
  <rect height="22.0898" opacity="0" width="20.4727" x="0" y="0"/>
  <path d="M2.87109 22.0898L17.6016 22.0898Q20.4727 22.0898 20.4727 20.2148Q20.4727 19.0664 19.7695 17.7656Q19.0664 16.4648 17.7363 15.3105Q16.4062 14.1562 14.5137 13.4297Q12.6211 12.7031 10.2422 12.7031Q7.85156 12.7031 5.95898 13.4297Q4.06641 14.1562 2.73633 15.3105Q1.40625 16.4648 0.703125 17.7656Q0 19.0664 0 20.2148Q0 22.0898 2.87109 22.0898ZM2.32031 20.3203Q2.08594 20.3203 1.98633 20.25Q1.88672 20.1797 1.88672 19.9922Q1.88672 19.2773 2.43164 18.334Q2.97656 17.3906 4.04297 16.5117Q5.10938 15.6328 6.66797 15.0527Q8.22656 14.4727 10.2422 14.4727Q12.2578 14.4727 13.8105 15.0527Q15.3633 15.6328 16.4297 16.5117Q17.4961 17.3906 18.041 18.334Q18.5859 19.2773 18.5859 19.9922Q18.5859 20.1797 18.4863 20.25Q18.3867 20.3203 18.1641 20.3203ZM10.2422 11.25Q11.6367 11.25 12.7852 10.5Q13.9336 9.75 14.6191 8.50195Q15.3047 7.25391 15.3047 5.74219Q15.3047 4.24219 14.625 3.0293Q13.9453 1.81641 12.7969 1.10156Q11.6484 0.386719 10.2422 0.386719Q8.84766 0.386719 7.69922 1.11328Q6.55078 1.83984 5.86523 3.05859Q5.17969 4.27734 5.17969 5.76562Q5.17969 7.26562 5.86523 8.51367Q6.55078 9.76172 7.69922 10.5059Q8.84766 11.25 10.2422 11.25ZM10.2422 9.48047Q9.38672 9.48047 8.66602 8.98242Q7.94531 8.48438 7.50586 7.64062Q7.06641 6.79688 7.06641 5.76562Q7.06641 4.74609 7.5 3.93164Q7.93359 3.11719 8.6543 2.63672Q9.375 2.15625 10.2422 2.15625Q11.1211 2.15625 11.8418 2.625Q12.5625 3.09375 12.9902 3.9082Q13.418 4.72266 13.418 5.74219Q13.418 6.77344 12.9844 7.62305Q12.5508 8.47266 11.8301 8.97656Q11.1094 9.48047 10.2422 9.48047Z" fill="#98989d"/>
 </g>
</svg>
