<?xml version="1.0" encoding="UTF-8"?>
<!--Generator: Apple Native CoreSVG 175-->
<!DOCTYPE svg
PUBLIC "-//W3C//DTD SVG 1.1//EN"
       "http://www.w3.org/Graphics/SVG/1.1/DTD/svg11.dtd">
<svg version="1.1" xmlns="http://www.w3.org/2000/svg" xmlns:xlink="http://www.w3.org/1999/xlink" width="27.9727" height="26.5898">
 <g>
  <rect height="26.5898" opacity="0" width="27.9727" x="0" y="0"/>
  <path d="M10.6055 23.4023L17.3672 23.4023L17.3672 14.8711Q17.3672 14.4727 17.1211 14.2266Q16.875 13.9805 16.4766 13.9805L11.5078 13.9805Q11.0977 13.9805 10.8516 14.2266Q10.6055 14.4727 10.6055 14.8711ZM6.02344 24.6094L21.8789 24.6094Q23.1328 24.6094 23.8242 23.9297Q24.5156 23.25 24.5156 22.0195L24.5156 9.07031L22.6289 7.78125L22.6289 21.5391Q22.6289 22.1133 22.3359 22.418Q22.043 22.7227 21.4805 22.7227L6.42188 22.7227Q5.85938 22.7227 5.56055 22.418Q5.26172 22.1133 5.26172 21.5391L5.26172 7.79297L3.375 9.07031L3.375 22.0195Q3.375 23.25 4.07227 23.9297Q4.76953 24.6094 6.02344 24.6094ZM0 11.5664Q0 11.9297 0.269531 12.2168Q0.539062 12.5039 1.00781 12.5039Q1.25391 12.5039 1.45898 12.3867Q1.66406 12.2695 1.85156 12.1289L13.582 2.28516Q13.7812 2.10938 13.998 2.10938Q14.2148 2.10938 14.4141 2.28516L26.1445 12.1289Q26.3203 12.2695 26.5254 12.3867Q26.7305 12.5039 26.9766 12.5039Q27.3867 12.5039 27.6797 12.2637Q27.9727 12.0234 27.9727 11.6016Q27.9727 11.1094 27.6094 10.8047L15.4102 0.550781Q14.7539 0 13.998 0Q13.2422 0 12.5859 0.550781L0.375 10.8047Q0 11.1094 0 11.5664ZM21.5742 6.28125L24.5156 8.76562L24.5156 3.35156Q24.5156 2.96484 24.2871 2.73633Q24.0586 2.50781 23.6719 2.50781L22.418 2.50781Q22.043 2.50781 21.8086 2.73633Q21.5742 2.96484 21.5742 3.35156Z" fill="#98989d"/>
 </g>
</svg>
