<?xml version="1.0" encoding="UTF-8"?>
<!--Generator: Apple Native CoreSVG 175-->
<!DOCTYPE svg
PUBLIC "-//W3C//DTD SVG 1.1//EN"
       "http://www.w3.org/Graphics/SVG/1.1/DTD/svg11.dtd">
<svg version="1.1" xmlns="http://www.w3.org/2000/svg" xmlns:xlink="http://www.w3.org/1999/xlink" width="17.4551" height="16.6729">
 <g>
  <rect height="16.6729" opacity="0" width="17.4551" x="0" y="0"/>
  <path d="M8.72754 16.6729Q8.86816 16.6729 9.04834 16.5981Q9.22852 16.5234 9.36914 16.4355Q11.8477 14.8535 13.6626 13.1177Q15.4775 11.3818 16.4663 9.54932Q17.4551 7.7168 17.4551 5.84473Q17.4551 4.67578 17.0815 3.70459Q16.708 2.7334 16.0444 2.02148Q15.3809 1.30957 14.4888 0.922852Q13.5967 0.536133 12.5596 0.536133Q11.2764 0.536133 10.3008 1.19092Q9.3252 1.8457 8.72754 2.93555Q8.13867 1.85449 7.16309 1.19531Q6.1875 0.536133 4.89551 0.536133Q3.8584 0.536133 2.9707 0.922852Q2.08301 1.30957 1.41504 2.02148Q0.74707 2.7334 0.373535 3.70459Q0 4.67578 0 5.84473Q0 7.7168 0.98877 9.54932Q1.97754 11.3818 3.79688 13.1177Q5.61621 14.8535 8.09473 16.4355Q8.23535 16.5234 8.41553 16.5981Q8.5957 16.6729 8.72754 16.6729Z" fill="#ff375f"/>
 </g>
</svg>
