<?xml version="1.0" encoding="UTF-8"?>
<!--Generator: Apple Native CoreSVG 175-->
<!DOCTYPE svg
PUBLIC "-//W3C//DTD SVG 1.1//EN"
       "http://www.w3.org/Graphics/SVG/1.1/DTD/svg11.dtd">
<svg version="1.1" xmlns="http://www.w3.org/2000/svg" xmlns:xlink="http://www.w3.org/1999/xlink" width="27.9727" height="26.5898">
 <g>
  <rect height="26.5898" opacity="0" width="27.9727" x="0" y="0"/>
  <path d="M17.0039 22.7227L10.957 22.7227L10.957 14.9766Q10.957 14.5664 11.209 14.3262Q11.4609 14.0859 11.8594 14.0859L16.1133 14.0859Q16.5234 14.0859 16.7637 14.3262Q17.0039 14.5664 17.0039 14.9766ZM3.65625 22.0195Q3.65625 23.25 4.35352 23.9297Q5.05078 24.6094 6.29297 24.6094L21.7031 24.6094Q22.9336 24.6094 23.6309 23.9297Q24.3281 23.25 24.3281 22.0195L24.3281 12.7383L14.6953 4.66406Q13.9922 4.06641 13.2891 4.66406L3.65625 12.7383ZM0 11.5664Q0 11.9297 0.269531 12.2168Q0.539062 12.5039 1.00781 12.5039Q1.25391 12.5039 1.45898 12.3867Q1.66406 12.2695 1.85156 12.1289L13.582 2.28516Q13.7812 2.10938 13.998 2.10938Q14.2148 2.10938 14.4141 2.28516L26.1445 12.1289Q26.3203 12.2695 26.5254 12.3867Q26.7305 12.5039 26.9766 12.5039Q27.3867 12.5039 27.6797 12.2637Q27.9727 12.0234 27.9727 11.6016Q27.9727 11.1094 27.6094 10.8047L15.4102 0.550781Q14.7539 0 13.998 0Q13.2422 0 12.5859 0.550781L0.375 10.8047Q0 11.1094 0 11.5664ZM21.3867 6.28125L24.3281 8.76562L24.3281 3.35156Q24.3281 2.96484 24.0996 2.73633Q23.8711 2.50781 23.4844 2.50781L22.2305 2.50781Q21.8555 2.50781 21.6211 2.73633Q21.3867 2.96484 21.3867 3.35156Z" fill="#98989d"/>
 </g>
</svg>
