<?xml version="1.0" encoding="UTF-8"?>
<!--Generator: Apple Native CoreSVG 175-->
<!DOCTYPE svg
PUBLIC "-//W3C//DTD SVG 1.1//EN"
       "http://www.w3.org/Graphics/SVG/1.1/DTD/svg11.dtd">
<svg version="1.1" xmlns="http://www.w3.org/2000/svg" xmlns:xlink="http://www.w3.org/1999/xlink" width="17.4551" height="16.6729">
 <g>
  <rect height="16.6729" opacity="0" width="17.4551" x="0" y="0"/>
  <path d="M0 5.84473Q0 7.7168 0.98877 9.54932Q1.97754 11.3818 3.79688 13.1177Q5.61621 14.8535 8.09473 16.4355Q8.23535 16.5234 8.41553 16.5981Q8.5957 16.6729 8.72754 16.6729Q8.86816 16.6729 9.04834 16.5981Q9.22852 16.5234 9.36914 16.4355Q11.8477 14.8535 13.6626 13.1177Q15.4775 11.3818 16.4663 9.54932Q17.4551 7.7168 17.4551 5.84473Q17.4551 4.67578 17.0815 3.70459Q16.708 2.7334 16.0356 2.02148Q15.3633 1.30957 14.4536 0.922852Q13.5439 0.536133 12.4717 0.536133Q11.25 0.536133 10.2876 1.07227Q9.3252 1.6084 8.72754 2.49609Q8.13867 1.6084 7.17188 1.07227Q6.20508 0.536133 4.9834 0.536133Q3.91992 0.536133 3.01025 0.922852Q2.10059 1.30957 1.42383 2.02148Q0.74707 2.7334 0.373535 3.70459Q0 4.67578 0 5.84473ZM1.41504 5.84473Q1.41504 4.67578 1.87646 3.80127Q2.33789 2.92676 3.14209 2.43896Q3.94629 1.95117 4.96582 1.95117Q5.79199 1.95117 6.39844 2.24561Q7.00488 2.54004 7.42676 2.97949Q7.84863 3.41895 8.12988 3.8584Q8.31445 4.12207 8.44189 4.21436Q8.56934 4.30664 8.72754 4.30664Q8.88574 4.30664 9.00879 4.20996Q9.13184 4.11328 9.3252 3.8584Q9.62402 3.42773 10.0503 2.98389Q10.4766 2.54004 11.0698 2.24561Q11.6631 1.95117 12.4893 1.95117Q13.5088 1.95117 14.313 2.43896Q15.1172 2.92676 15.5786 3.80127Q16.04 4.67578 16.04 5.84473Q16.04 7.06641 15.4512 8.31885Q14.8623 9.57129 13.856 10.7754Q12.8496 11.9795 11.5708 13.0737Q10.292 14.168 8.91211 15.082Q8.7627 15.1875 8.72754 15.1875Q8.69238 15.1875 8.55176 15.082Q7.17188 14.168 5.89307 13.0737Q4.61426 11.9795 3.60352 10.7754Q2.59277 9.57129 2.00391 8.31885Q1.41504 7.06641 1.41504 5.84473Z" fill="#ff375f"/>
 </g>
</svg>
