<?xml version="1.0" encoding="UTF-8"?>
<!--Generator: Apple Native CoreSVG 175-->
<!DOCTYPE svg
PUBLIC "-//W3C//DTD SVG 1.1//EN"
       "http://www.w3.org/Graphics/SVG/1.1/DTD/svg11.dtd">
<svg version="1.1" xmlns="http://www.w3.org/2000/svg" xmlns:xlink="http://www.w3.org/1999/xlink" width="19.7227" height="21.457">
 <g>
  <rect height="21.457" opacity="0" width="19.7227" x="0" y="0"/>
  <path d="M2.00391 21.457L17.7188 21.457Q18.6562 21.457 19.1895 21.041Q19.7227 20.625 19.7227 19.8984Q19.7227 18.7734 19.0371 17.5195Q18.3516 16.2656 17.0684 15.1699Q15.7852 14.0742 13.9629 13.3887Q12.1406 12.7031 9.85547 12.7031Q7.58203 12.7031 5.75977 13.3887Q3.9375 14.0742 2.64844 15.1699Q1.35938 16.2656 0.679688 17.5195Q0 18.7734 0 19.8984Q0 20.625 0.533203 21.041Q1.06641 21.457 2.00391 21.457ZM9.86719 10.6055Q11.1211 10.6055 12.1875 9.91992Q13.2539 9.23438 13.9043 8.0625Q14.5547 6.89062 14.5547 5.42578Q14.5547 3.98438 13.9043 2.8418Q13.2539 1.69922 12.1875 1.04297Q11.1211 0.386719 9.86719 0.386719Q8.61328 0.386719 7.54688 1.05469Q6.48047 1.72266 5.83008 2.87109Q5.17969 4.01953 5.17969 5.44922Q5.17969 6.90234 5.83008 8.06836Q6.48047 9.23438 7.54688 9.91992Q8.61328 10.6055 9.86719 10.6055Z" fill="#98989d"/>
 </g>
</svg>
