<?xml version="1.0" encoding="UTF-8"?>
<!--Generator: Apple Native CoreSVG 175-->
<!DOCTYPE svg
PUBLIC "-//W3C//DTD SVG 1.1//EN"
       "http://www.w3.org/Graphics/SVG/1.1/DTD/svg11.dtd">
<svg version="1.1" xmlns="http://www.w3.org/2000/svg" xmlns:xlink="http://www.w3.org/1999/xlink" width="48.7925" height="49.7681">
 <g>
  <rect height="49.7681" opacity="0" width="48.7925" x="0" y="0"/>
  <path d="M9.35596 46.2305Q10.0371 46.7578 10.894 46.593Q11.751 46.4282 12.7617 45.7031L24.3853 37.1558L36.0308 45.7031Q37.0415 46.4282 37.8984 46.593Q38.7554 46.7578 39.4365 46.2305Q40.1177 45.7251 40.2605 44.8682Q40.4033 44.0112 39.9858 42.8247L35.3936 29.1577L47.127 20.7202Q48.1597 19.9951 48.5552 19.2261Q48.9507 18.457 48.687 17.644Q48.4233 16.853 47.6543 16.4575Q46.8853 16.062 45.6108 16.084L31.2188 16.1719L26.8462 2.43896Q26.4507 1.23047 25.8464 0.615234Q25.2422 0 24.3853 0Q23.5503 0 22.946 0.615234Q22.3418 1.23047 21.9463 2.43896L17.5737 16.1719L3.18164 16.084Q1.90723 16.062 1.13818 16.4575Q0.369141 16.853 0.105469 17.644Q-0.158203 18.457 0.237305 19.2261Q0.632812 19.9951 1.66553 20.7202L13.3989 29.1577L8.80664 42.8247Q8.38916 44.0112 8.53198 44.8682Q8.6748 45.7251 9.35596 46.2305Z" fill="#e05b2f"/>
 </g>
</svg>
