<?xml version="1.0" encoding="UTF-8"?>
<!--Generator: Apple Native CoreSVG 175-->
<!DOCTYPE svg
PUBLIC "-//W3C//DTD SVG 1.1//EN"
       "http://www.w3.org/Graphics/SVG/1.1/DTD/svg11.dtd">
<svg version="1.1" xmlns="http://www.w3.org/2000/svg" xmlns:xlink="http://www.w3.org/1999/xlink" width="44.8242" height="44.8462">
 <g>
  <rect height="44.8462" opacity="0" width="44.8242" x="0" y="0"/>
  <path d="M22.4121 44.8242Q27.0044 44.8242 31.0583 43.0664Q35.1123 41.3086 38.2104 38.2104Q41.3086 35.1123 43.0664 31.0583Q44.8242 27.0044 44.8242 22.4121Q44.8242 17.8198 43.0664 13.7659Q41.3086 9.71191 38.2104 6.61377Q35.1123 3.51562 31.0474 1.75781Q26.9824 0 22.3901 0Q17.7979 0 13.7439 1.75781Q9.68994 3.51562 6.60278 6.61377Q3.51562 9.71191 1.75781 13.7659Q0 17.8198 0 22.4121Q0 27.0044 1.75781 31.0583Q3.51562 35.1123 6.61377 38.2104Q9.71191 41.3086 13.7659 43.0664Q17.8198 44.8242 22.4121 44.8242ZM11.6895 22.4341Q11.6895 21.5771 12.2388 21.0388Q12.7881 20.5005 13.645 20.5005L20.5225 20.5005L20.5225 13.623Q20.5225 12.7661 21.0388 12.2168Q21.5552 11.6675 22.3901 11.6675Q23.2471 11.6675 23.7854 12.2168Q24.3237 12.7661 24.3237 13.623L24.3237 20.5005L31.2231 20.5005Q32.0801 20.5005 32.6184 21.0388Q33.1567 21.5771 33.1567 22.4341Q33.1567 23.269 32.6074 23.7854Q32.0581 24.3018 31.2231 24.3018L24.3237 24.3018L24.3237 31.2012Q24.3237 32.0581 23.7854 32.5964Q23.2471 33.1348 22.3901 33.1348Q21.5552 33.1348 21.0388 32.5964Q20.5225 32.0581 20.5225 31.2012L20.5225 24.3018L13.645 24.3018Q12.7881 24.3018 12.2388 23.7854Q11.6895 23.269 11.6895 22.4341Z" fill="#e35c30"/>
 </g>
</svg>
