<?xml version="1.0" encoding="UTF-8"?>
<!--Generator: Apple Native CoreSVG 175-->
<!DOCTYPE svg
PUBLIC "-//W3C//DTD SVG 1.1//EN"
       "http://www.w3.org/Graphics/SVG/1.1/DTD/svg11.dtd">
<svg version="1.1" xmlns="http://www.w3.org/2000/svg" xmlns:xlink="http://www.w3.org/1999/xlink" width="25.875" height="20.2148">
 <g>
  <rect height="20.2148" opacity="0" width="25.875" x="0" y="0"/>
  <path d="M12.9609 11.4727Q13.6641 11.4727 14.4023 10.7344L24.5977 0.644531Q23.9414 0.0234375 22.1953 0.0234375L3.32812 0.0234375Q1.83984 0.0234375 1.26562 0.597656L11.5195 10.7344Q12.2461 11.4727 12.9609 11.4727ZM0.292969 18.3281L8.57812 10.1367L0.269531 1.94531Q0 2.44922 0 3.64453L0 16.582Q0 17.8242 0.292969 18.3281ZM3.67969 20.2148L22.5469 20.2148Q24.0117 20.2148 24.5977 19.6523L16.1484 11.2852L15.375 12.0703Q14.1914 13.1953 12.9609 13.1953Q11.7188 13.1953 10.5469 12.0703L9.76172 11.2852L1.33594 19.6406Q2.00391 20.2148 3.67969 20.2148ZM25.5938 18.3164Q25.875 17.8008 25.875 16.582L25.875 3.64453Q25.875 2.46094 25.6172 1.98047L17.332 10.1367Z" fill="#98989d"/>
 </g>
</svg>
