<?xml version="1.0" encoding="UTF-8"?>
<!--Generator: Apple Native CoreSVG 175-->
<!DOCTYPE svg
PUBLIC "-//W3C//DTD SVG 1.1//EN"
       "http://www.w3.org/Graphics/SVG/1.1/DTD/svg11.dtd">
<svg version="1.1" xmlns="http://www.w3.org/2000/svg" xmlns:xlink="http://www.w3.org/1999/xlink" width="25.875" height="20.2148">
 <g>
  <rect height="20.2148" opacity="0" width="25.875" x="0" y="0"/>
  <path d="M3.67969 20.2148L22.5469 20.2148Q24.1289 20.2148 25.002 19.3066Q25.875 18.3984 25.875 16.582L25.875 3.64453Q25.875 1.83984 24.9551 0.931641Q24.0352 0.0234375 22.1953 0.0234375L3.32812 0.0234375Q1.74609 0.0234375 0.873047 0.931641Q0 1.83984 0 3.64453L0 16.582Q0 18.3984 0.919922 19.3066Q1.83984 20.2148 3.67969 20.2148ZM3.60938 18.4219Q2.73047 18.4219 2.26172 17.959Q1.79297 17.4961 1.79297 16.582L1.79297 3.64453Q1.79297 2.74219 2.26172 2.2793Q2.73047 1.81641 3.60938 1.81641L22.2656 1.81641Q23.1328 1.81641 23.6074 2.2793Q24.082 2.74219 24.082 3.65625L24.082 16.5938Q24.082 17.4961 23.6074 17.959Q23.1328 18.4219 22.2656 18.4219ZM12.9609 13.2422Q13.582 13.2422 14.1797 12.9727Q14.7773 12.7031 15.3984 12.0938L24.9141 2.74219L23.6953 1.51172L14.3789 10.7109Q13.9922 11.0859 13.6465 11.2617Q13.3008 11.4375 12.9609 11.4375Q12.6094 11.4375 12.2637 11.2559Q11.918 11.0742 11.543 10.7109L2.17969 1.46484L0.949219 2.69531L10.5234 12.0938Q11.1328 12.7031 11.7363 12.9727Q12.3398 13.2422 12.9609 13.2422ZM23.5781 18.6797L24.7969 17.4492L17.2148 9.96094L15.9961 11.1797ZM1.11328 17.4609L2.33203 18.6914L9.92578 11.1797L8.69531 9.96094Z" fill="#98989d"/>
 </g>
</svg>
